<?xml version="1.0" encoding="utf-8"?>
<!-- Generator: Adobe Illustrator 16.0.0, SVG Export Plug-In . SVG Version: 6.00 Build 0)  -->
<!DOCTYPE svg PUBLIC "-//W3C//DTD SVG 1.1//EN" "http://www.w3.org/Graphics/SVG/1.1/DTD/svg11.dtd">
<svg version="1.1" id="Layer_1" xmlns="http://www.w3.org/2000/svg" xmlns:xlink="http://www.w3.org/1999/xlink" x="0px" y="0px"
	 width="440px" height="83.333px" viewBox="115.727 2.033 440 83.333" enable-background="new 115.727 2.033 440 83.333"
	 xml:space="preserve">
<g id="Layer_2" display="none">
	<rect y="0" display="inline" fill="#323232" stroke="#000000" stroke-miterlimit="10" width="626.453" height="211.733"/>
</g>
<g id="Layer_1_1_">
	<g>
		<g>
			<g>
				<path fill="#FFFFFF" d="M127.807,68.857c1.332,1.592,2.607,2.734,3.847,3.456c1.219,0.724,2.514,1.091,3.9,1.091
					c2.531,0,4.307-0.832,5.323-2.495c1.036-1.663,1.554-4.75,1.554-9.261V3.967h12.775v61.857c0,6.71-1.48,11.649-4.438,14.811
					c-2.959,3.161-7.578,4.729-13.865,4.729c-3.475,0-6.6-0.663-9.408-1.996c-2.794-1.351-5.438-3.417-7.933-6.228L127.807,68.857
					L127.807,68.857z"/>
				<path fill="#FFFFFF" d="M240.007,43.772c0-3.996-0.739-7.805-2.2-11.426c-1.46-3.606-3.55-6.821-6.304-9.633
					c-2.663-2.791-5.77-4.918-9.282-6.417c-3.529-1.495-7.228-2.255-11.128-2.255c-3.902,0-7.617,0.741-11.13,2.219
					c-3.512,1.481-6.656,3.627-9.392,6.454c-2.735,2.773-4.844,5.974-6.287,9.574c-1.441,3.626-2.162,7.454-2.162,11.484
					c0,4.009,0.721,7.8,2.162,11.386c1.443,3.568,3.552,6.766,6.287,9.578c2.735,2.828,5.859,4.972,9.372,6.451
					c3.495,1.48,7.212,2.218,11.149,2.218c3.863,0,7.543-0.737,11.02-2.218c3.474-1.479,6.616-3.623,9.391-6.451
					c2.754-2.813,4.844-6.009,6.304-9.616C239.269,51.534,240.007,47.743,240.007,43.772L240.007,43.772z M253.447,43.772
					c0,5.636-1.054,10.962-3.161,15.971c-2.124,5.03-5.195,9.504-9.243,13.44c-4.085,3.938-8.689,6.951-13.811,9.043
					c-5.119,2.087-10.501,3.141-16.139,3.141c-5.714,0-11.149-1.054-16.325-3.161c-5.194-2.124-9.761-5.121-13.735-9.021
					c-4.049-3.937-7.12-8.394-9.208-13.383c-2.089-4.977-3.143-10.315-3.143-16.028c0-5.677,1.054-11.02,3.143-16.028
					c2.088-5.03,5.159-9.521,9.208-13.497c4.048-3.938,8.634-6.933,13.754-8.986c5.121-2.053,10.556-3.087,16.307-3.087
					c5.713,0,11.109,1.035,16.213,3.087c5.121,2.054,9.688,5.048,13.736,8.986c4.048,4.013,7.119,8.542,9.243,13.566
					C252.394,32.864,253.447,38.168,253.447,43.772L253.447,43.772z"/>
				<path fill="#FFFFFF" d="M281.327,83.257V46.968L254.631,3.967h13.533l16.619,26.916c0.408,0.684,0.906,1.59,1.498,2.718
					c0.592,1.109,1.201,2.313,1.813,3.625c0.5-1.275,1.035-2.46,1.592-3.588c0.57-1.107,1.145-2.145,1.771-3.087l17.064-26.583
					h12.886L294.1,46.969v36.289L281.327,83.257L281.327,83.257z"/>
				<path fill="#FFFFFF" d="M342.65,37.449h4.916c6.141,0,10.482-0.832,13.035-2.516c2.531-1.683,3.807-4.512,3.807-8.486
					c0-4.327-1.164-7.376-3.51-9.134c-2.352-1.757-6.789-2.626-13.332-2.626h-4.916V37.449L342.65,37.449z M342.65,72.482h4.438
					c4.512,0,7.893-0.187,10.131-0.535c2.234-0.371,3.992-1,5.305-1.905c1.59-1.037,2.813-2.458,3.682-4.216
					c0.867-1.774,1.291-3.716,1.291-5.861c0-2.514-0.518-4.732-1.57-6.599c-1.055-1.888-2.547-3.345-4.49-4.382
					c-1.223-0.63-2.627-1.072-4.199-1.368c-1.568-0.279-3.66-0.427-6.248-0.427h-3.898h-4.438v25.293H342.65z M330.021,83.257V3.967
					h19.984c5.713,0,9.93,0.313,12.646,0.922c2.721,0.608,5.049,1.626,6.951,3.033c2.461,1.813,4.363,4.179,5.713,7.101
					c1.352,2.919,2.033,6.153,2.033,9.687c0,4.231-0.979,7.764-2.922,10.591c-1.959,2.832-4.787,4.809-8.504,5.937
					c4.623,0.721,8.266,2.828,10.928,6.305c2.645,3.494,3.975,7.875,3.975,13.182c0,3.218-0.553,6.268-1.682,9.149
					c-1.111,2.906-2.699,5.363-4.771,7.38c-2.164,2.198-4.844,3.75-8.059,4.655c-3.219,0.906-8.617,1.35-16.197,1.35H330.021
					L330.021,83.257z"/>
				<polygon fill="#FFFFFF" points="394.156,83.257 394.156,3.967 407.041,3.967 407.041,83.257 				"/>
				<path fill="#FFFFFF" d="M438.451,37.76h2.33c6.824,0,11.352-0.793,13.588-2.384c2.238-1.592,3.365-4.401,3.365-8.449
					c0-4.362-1.201-7.434-3.605-9.225c-2.402-1.794-6.855-2.68-13.348-2.68h-2.33V37.76L438.451,37.76z M437.641,47.781v35.478
					h-12.074V3.968h17.969c5.27,0,9.373,0.351,12.277,1.032c2.902,0.685,5.381,1.813,7.449,3.404c2.459,1.922,4.344,4.4,5.693,7.43
					c1.334,3.034,1.996,6.343,1.996,9.965c0,6.341-1.531,11.315-4.602,14.922c-3.07,3.585-7.619,5.746-13.609,6.466l27.309,36.069
					h-14.566l-26.385-35.478h-1.457V47.781z"/>
				<path fill="#FFFFFF" d="M500.568,71.614h10.834c5.955,0,10.426-0.391,13.406-1.187c2.977-0.794,5.564-2.144,7.783-4.009
					c2.994-2.57,5.23-5.75,6.727-9.561c1.498-3.809,2.256-8.245,2.256-13.309c0-5.046-0.758-9.483-2.256-13.295
					c-1.494-3.807-3.732-6.988-6.727-9.557c-2.238-1.867-4.938-3.215-8.043-4.01c-3.125-0.795-8.023-1.186-14.662-1.186h-4.66
					h-4.658V71.614L500.568,71.614z M487.686,83.257V3.967h17.377c11.313,0,19.264,0.572,23.867,1.7
					c4.604,1.146,8.635,3.05,12.107,5.714c4.586,3.512,8.063,8.005,10.428,13.492c2.367,5.492,3.553,11.76,3.553,18.787
					c0,7.042-1.186,13.292-3.553,18.725c-2.365,5.437-5.842,9.911-10.428,13.459c-3.475,2.664-7.412,4.569-11.828,5.715
					c-4.438,1.128-11.316,1.699-20.672,1.699h-3.475L487.686,83.257L487.686,83.257z"/>
			</g>
		</g>
	</g>
</g>
</svg>
